<svg xmlns="http://www.w3.org/2000/svg" width="720" height="370" viewBox="0 0 720 370" font-family="Georgia, 'Times New Roman', serif" font-size="14" fill="#2B2620">
<defs><marker id="arrow" viewBox="0 0 10 10" refX="9" refY="5" markerWidth="7" markerHeight="7" orient="auto-start-reverse"><path d="M0,0 L10,5 L0,10 z" fill="#2B2620"/></marker><marker id="arrow-accent" viewBox="0 0 10 10" refX="9" refY="5" markerWidth="7" markerHeight="7" orient="auto-start-reverse"><path d="M0,0 L10,5 L0,10 z" fill="#8A2F3A"/></marker></defs>
<rect width="720" height="370" rx="14" fill="#F6F1E6"/>
<rect x="125" y="304" width="470" height="14" rx="3" fill="#D9CFBD"/>
<line x1="360.0" y1="300.0" x2="149.7" y2="255.3" stroke="#2B2620" stroke-width="4" stroke-linecap="round"/>
<text x="141.7" y="249.3" font-size="13" fill="#2B2620" text-anchor="end">cover</text>
<line x1="360.0" y1="300.0" x2="158.0" y2="226.5" stroke="#8A7F70" stroke-width="2" stroke-linecap="round"/>
<text x="150.0" y="220.5" font-size="13" fill="#8A7F70" text-anchor="end">flyleaf</text>
<line x1="360.0" y1="300.0" x2="233.6" y2="126.1" stroke="#8A7F70" stroke-width="2" stroke-linecap="round"/>
<text x="225.6" y="120.1" font-size="13" fill="#8A7F70" text-anchor="end">leaf 0</text>
<line x1="360.0" y1="300.0" x2="433.5" y2="98.0" stroke="#8A2F3A" stroke-width="3" stroke-linecap="round"/>
<text x="441.5" y="92.0" font-size="13" fill="#8A2F3A" text-anchor="start">leaf 1 (dragged)</text>
<line x1="360.0" y1="300.0" x2="575.0" y2="300.0" stroke="#8A7F70" stroke-width="2" stroke-linecap="round"/>
<text x="583.0" y="294.0" font-size="13" fill="#8A7F70" text-anchor="start">leaf 2 … (resting)</text>
<line x1="360.0" y1="300.0" x2="398.5" y2="119.0" stroke="#3E6A8A" stroke-width="2" stroke-linecap="round" stroke-dasharray="6 5"/>
<path d="M389.6,147.8 A155,155 0 0 1 410.5,153.4" stroke="#3E6A8A" stroke-width="1.8" fill="none" stroke-linecap="round" stroke-linejoin="round" marker-end="url(#arrow)"/>
<text x="452.0" y="145.0" font-size="12" fill="#3E6A8A" text-anchor="start">leaf 2 overtook → pushed back</text>
<circle cx="360.0" cy="300.0" r="6" fill="#2B2620"/>
<text x="24.0" y="36.0" font-size="17" fill="#2B2620" text-anchor="start" font-weight="bold">Nothing collides in 3D: an ordering instead</text>
<text x="24.0" y="58.0" font-size="13" fill="#8A7F70" text-anchor="start" font-family="ui-monospace, Menlo, Consolas, monospace">θ_cover ≥ θ_flyleaf ≥ θ_0 ≥ θ_1 ≥ … ≥ 0, enforced after every step</text>
<text x="696.0" y="354.0" font-size="12" fill="#8A7F70" text-anchor="end">dragged = rigid, pushes · free pairs merge by mass (cover = 8) · blocked settles retarget</text>
</svg>
